/* XPM */
static char * agua_xpm[] = {
"32 32 16 1",
" 	c #3D55C0",
".	c #3C51BD",
"+	c #4464CB",
"@	c #6395CE",
"#	c #3B4FBC",
"$	c #7BB8CF",
"%	c #86C9D4",
"&	c #7BB9D0",
"*	c #7BB8D0",
"=	c #3D54BF",
"-	c #3744B5",
";	c #394AB9",
">	c #3B4EBB",
",	c #3847B7",
"'	c #3A4CBA",
")	c #72ABD0",
"   .++++@@++++       +++@+++  # ",
"#$.++++++%+++++.& .. +++%+++ #*#",
"$# +++%%%%%%+++  #.++++%%++++.##",
" # ++@@++++%++++++++++%%%%@@++ #",
"++++=++++++++=+++++++@@+++++++++",
"++++++++++++++@@++%+++++++++++@+",
"@@+@++++--++++++%+%+++++;>>+++@@",
"+%%%+=+-#,-++++++%++++;>>#>;+++@",
"++%%++++-#$; ++++%++++;#& ;;+++@",
"+++%+++++-#-;+=+++%+++;. ;;++++@",
"+++%@@++++--'++++@@++;> ;;+++++@",
"+=+++++++++;;++++%++;;;;;+++++@@",
"+++##++++++;++++%%+++++++@++++@+",
"+++#$##+@@@+++++%++++++++%++++++",
"@+++##+++@%%%++%%%+++++%%%%+++=+",
"@@+++.++@%%%%@+++%@@@+++%%++++++",
"+@@++++@+++%++@++++++++++%++++++",
"+=++++@@+++@+++++++++++=++@+++++",
"+++++++++++++=++ ;;;;+++++@@+=++",
"++++# +++++)++++;>>$;;++++@+@@@@",
"@@+ $.++++%%++++;>>>>>;+++@+++++",
"+@+.  +++@%%@++++;;;>*;+++++++++",
"++++++++++++@++++++++;;+++++=+++",
"+++@%%+@++++++++@++++++++@++++;;",
"=++++%%%++=+++++%@++++++%%+++;;;",
"++++%%%++++++++++%%+++%%%+++;;;;",
"++++%++@@++ ;;;++%@+=++%%++;;>$;",
"+@++++++@++;;*;;+@++++++%+++>>;;",
"@@+  ++++++;;.;>++++++++%+++;#>$",
"+++  ++++@++;;;++++ ++++@@+++;;;",
"++ &  +++%++++++@+   ++++@@++++;",
"++   .+++%@+++++@+    ++++@@++++"};
