/* XPM */
static char * Arrrg_xpm[] = {
"32 32 10 1",
" 	c None",
".	c #38FF00",
"+	c #DDBE1E",
"@	c #000000",
"#	c #FDFDFD",
"$	c #E889A6",
"%	c #B87A33",
"&	c #EE1010",
"*	c #DF0F0F",
"=	c #FFFFFF",
"                    .           ",
"                   ..           ",
"                  ...           ",
"                 ...            ",
"             +++..              ",
"   +        +@@@+          +    ",
"   +       +@@@@@+       ++     ",
"    ++++++++++++++++++++++      ",
"    +@@@@@@@@#@@#@@@@@@@@+      ",
"     +@@@@@@@@##@@@@@@@@+       ",
"      +@@@@@@@##@@@@@@@+        ",
"       +@@@@@#@@#@@@@@+         ",
"        ++++++++++++++          ",
"          $@@$$$@@$             ",
"          $$#$$$#$$             ",
"          $$$$$$$$$             ",
"          $$$###$$$             ",
"          @$$$$$$$@             ",
"          @@@@@@@@@             ",
"             %%%                ",
"           @@&&&@@              ",
"          @@*&&&&@@             ",
"         $@@@===@@@$            ",
"        $  @@===@@  $           ",
"           @**&&&@              ",
"           @@*&&@@              ",
"             $ +                ",
"             $ +                ",
"           @@@ +                ",
"           @@@ +                ",
"                                ",
"                                "};
