/* XPM */
static char * Arrrg_xpm[] = {
"32 32 21 1",
" 	c #17120D",
".	c #38FF00",
"+	c #7A4108",
"@	c #964B00",
"#	c #A91400",
"$	c #DDBE1E",
"%	c #000000",
"&	c #FDFDFD",
"*	c #2B2B2B",
"=	c #775A0F",
"-	c #BD7F52",
";	c #5E470D",
">	c #BE865D",
",	c #BE8E6B",
"'	c #0A0A0A",
")	c #C65D4A",
"!	c #B87A33",
"~	c #3A3A3A",
"{	c #FFFFFF",
"]	c #2F2D29",
"^	c #72560F",
"                    .           ",
"+++++++  @@@++++  @.#+++++  @@@+",
"@++++++  @@@++++  .#.+++++  @@@+",
"@@@++++  @@@@@++ .#.@@@+++  @@@+",
"@@@++++  @@@@$$$.. @@@@+++  @@@+",
"@@@$+++  @@@$%%%$  @@@@+++ $@@@+",
"@@@$+++  @@$%%%%%$ @@@@++$$ @@@+",
"@@@@$$$$$$$$$$$$$$$$$$$$$$  @@@+",
"@@@@$%%%%%%%%&%%&%%%%%***$  @@@+",
"@@@@+$%%%%%%%%&&%%%%%***$+  @@@+",
"@@@@++$%%%%%%%&&%%%%***$++  @@@+",
"@@@@+++$%%%%%&%%&%****$+++  @@@+",
"@@@@+++ $$$$$$$$$$$$$$@+++  @@@+",
"@@@@+++ ==---------==@@+++  @@@+",
"@@@@+++ ;>,,',,,',->;@@+++  @@@+",
"@@@@+++  @,,,,-,,,-@@@@+++  @@@+",
"@@@@+++  @===)))==;@@@@+++  @@@+",
"@@@@+++  @========;@@@@+++  @@@+",
"@@@@+++  @======;;;@@@@+++  @@@+",
"@@@@+++  @@@@!!!  @@@@@+++  @@@+",
"@@@@+++ %%%%%###%%%%%@@+++  @@@+",
"@@@@+++  >%%#####%%>@@@~+   @@@+",
"@@@@+>>  >%%%{{{%%%>@@~~+   @@@+",
"@@@+++>>>>@%%{{{%%@>>>~++   @@@+",
"@@@++++>>@@%#####%@@>>@++   @@@+",
"@@++++   @@%%###%%@@@@+++   @@@+",
"@@++++   @@+%###%@@++++++  @@@@+",
"@@+++   @@@++] #@@@+++++   @@@@+",
"@@++    @@+]]] ^@@@++     @@@@++",
"+@++   @@++]]] ^@++++     @@++++",
"++++  @@++    @@++++   @@@@+++++",
"                                "};
