/* XPM */
static char * barco_xpm[] = {
"32 32 22 1",
" 	c #3D55C0",
".	c #3C51BD",
"+	c #4464CB",
"@	c #6395CE",
"#	c #33322A",
"$	c #3B4FBC",
"%	c #7BB8CF",
"&	c #86C9D4",
"*	c #7BB9D0",
"=	c #7BB8D0",
"-	c #7A4108",
";	c #3D54BF",
">	c #3744B5",
",	c #394AB9",
"'	c #3B4EBB",
")	c #FFFFFF",
"!	c #D4CBC2",
"~	c #875D46",
"{	c #FFE400",
"]	c #72ABD0",
"^	c #927060",
"/	c #555450",
"   .++++@@++++ #     +++@+++  $ ",
"$%.++++++&+++++#* .. +++&+++ $=$",
"%$ +++&&&&&&+++# $.++++&&++++.$$",
" $ ++@@++++&#-----#+++&&&&@@++ $",
"++++;++++++++#---#+++@@+++++++++",
"++++++++++++++#-#+&+++++++++++@+",
"@@+@++++>>+++++#&+&+++++,''+++@@",
"+&&&+;+>$###############'$',+++@",
"++&&++++#####))))#######* ,,+++@",
"+++&+++###)###))###)##,. ,,++++@",
"+++&@@+####)#)##)#)##,' ,,+++++@",
"+;+++++#####)#))#)##,,,,,+++++@@",
"+++$$++######))))###+++++@++++@+",
"+++$%$$######)##)####++#######++",
"@+++$$++####))))))###++#!!!!!###",
"@@+++.++@##))####))###+#!!!!!!!#",
"+@@###+@++############+#########",
"+;+#~#@@+++@++##+++++++#~#---#~#",
"++##~#+++++++;## ,,,,++#~#--##~#",
"###{~####++]++##,''%,,##~#---#~#",
"{{{{~^~~/###############~#---#~#",
"#####~--~~~~~~~~~~~~~~~~~#####~#",
"++++#~--{{{{{------!!----~~~~~~#",
"+++@#~----{-------!**!-------~#,",
";+++#~-{--{--{---!****!-----~~#,",
"++++##~-{-{-{----!****!----~~##,",
"++++&##~-{{{------!**!-----~##%,",
"+@++++##~----------!!-----~~#',,",
"@@+  ++##^~~~~~------~~~~~~##$'%",
"+++  +++######~^~~~~~~######+,,,",
"++ *  +++&+++##########++@@++++,",
"     .+++&@+++++@+    ++++@@++++"};
