/* XPM */
static char * mapa_xpm[] = {
"32 32 27 1",
" 	c None",
".	c #000000",
"+	c #E6E0DF",
"@	c #0E0E0E",
"#	c #898585",
"$	c #EBD66E",
"%	c #F7351B",
"&	c #8E8140",
"*	c #ECBFBD",
"=	c #121212",
"-	c #085A08",
";	c #022AE3",
">	c #161611",
",	c #1C1B16",
"'	c #2C2B24",
")	c #26261F",
"!	c #0F0F0F",
"~	c #0D0D0D",
"{	c #B5A453",
"]	c #171717",
"^	c #060606",
"/	c #030303",
"(	c #9F9048",
"_	c #0A0A0A",
":	c #5E5528",
"<	c #010101",
"[	c #C7B55C",
"                  .......       ",
"                ..+++++++..     ",
"  @@@@         .++#.....#++.    ",
" @@$$@@        .++...%...++.    ",
" @&$$&@        .++...*...++.    ",
" @&$$&@        .++...+...++.    ",
" @&$$&@         .++.....#+..    ",
" @&$$ @@=@@@@@@@@@+++++++..     ",
" @&$$&@--------$$$.......$.     ",
" @&$$&@$-------$$$$  ; ;;&.     ",
" @&$$&@$-----$$$$$$  $$$&&.     ",
" @&$$&@$$>-$$$$$$$ ; >>$&&.     ",
" @&$$&@$,'>$$$$$ ;; >))>&&.     ",
" @&$$&@$$$$ ;;;;;;;;  $$&&.     ",
" @&$$&@$ ;;; $$$$$$  ;; &&.     ",
" @&@@&@ ; $$$-----$$$$ ; &.     ",
" @&@!~.; $$$-------$$$$$ &.     ",
" @${].$$$$$---------$$$$&;.     ",
"  @$$$$$$$-----------$$$&&.     ",
"   ^^=^^^^^^^^^^^@^^/^$$(&.     ",
"                  @_..$$&:.     ",
"                   ^@.@$&&.     ",
"                  ^<$@$$&&.     ",
"                  .^$$$$$&.     ",
"                  ..[$$$$$.     ",
"                   ........     ",
"                                ",
"                                ",
"                                ",
"                                ",
"                                ",
"                                "};
