/* XPM */
static char * mermaid_xpm[] = {
"32 32 35 1",
" 	c #86C9D4",
".	c #4464CB",
"+	c #3B4EBB",
"@	c #394AB9",
"#	c #3C51BD",
"$	c #6395CE",
"%	c #3D55C0",
"&	c #3B4FBC",
"*	c #7BB8D0",
"=	c #3D54BF",
"-	c #118F7B",
";	c #20796A",
">	c #1EAA93",
",	c #7BB9D0",
"'	c #9C275F",
")	c #C1B024",
"!	c #AA7F67",
"~	c #B58B74",
"{	c #3744B5",
"]	c #14261D",
"^	c #C2826D",
"/	c #7BB8CF",
"(	c #8E0202",
"_	c #C22A60",
":	c #BC9581",
"<	c #4C0767",
"[	c #7B3F93",
"}	c #8F2FB5",
"|	c #886489",
"1	c #9B769C",
"2	c #865186",
"3	c #3847B7",
"4	c #36054A",
"5	c #710C98",
"6	c #C9A4D8",
" ......++@.@@#..... ..$$..%@@@..",
" ......@&+..@@$.$......$..@@*@@.",
".$......@@.....$$.%%......@@#@+.",
".$$.=.....-;>>....%%....$..@@@..",
".$.$$$...-;--->..%,%%... ......$",
".$......-;-;;'->.),,%==)........",
".......-!!--';;>.)%%)==)$$.$....",
"...=..@-~~!!-;;>.)%$)==).   .=.{",
"$....@@-]~~]!-;->).$)$=)..  ....",
" ...@@@-^~~^!-;->.).)$)%%%#....$",
"...@@@/-~(~~!-;->..)_)%&/#......",
"..@@+/@-~~~~--;->...)%%%#....$$.",
"...++@+--;~~;-;-->..)&/#...... .",
"...@&+@-:~~~~:;;->..)/&%...     ",
"$...@@.:~~~~~~:;->..)%&%..$$....",
"$$.....~<<~<<-~;->$.)....=......",
".$$...:~[[}[[-~:->$$)...........",
"..~~&&~.;~~~!-;~~~< )||.|||..{{.",
".%%&<~~. ~~~!-;-;->~~1|.|2|.{&3{",
".%&||%||4~!~!4;-;-> )2||22|..{&/",
"..|12%|24~~~<4;-;;> )21|222|..{&",
"$.|22||245~5<<4;-;->)2||222|...{",
"..|222|1<5}555<;-;->)2|2221|....",
"..|222||<5}}65<;-;->)2|222|.....",
"..|1222|<65}}}5<;;;-)2|222|&.$$$",
"@.||222||<555}6<<;;-)||122|...$ ",
"@..||2222|<55}}}}<;-)|2222|..$  ",
"....||1222|<65565}4--|222|..$...",
".....||222||<<<<5}6<.|22|..$$...",
"...$. |||222|222<52<<|12|.......",
"...$ |||||22|12<<|2|<42|||%.....",
".... |221222222<222224222|#.... "};
