/* XPM */
static char * monster_xpm[] = {
"32 32 8 1",
" 	c None",
".	c #F51431",
"+	c #F3DC3B",
"@	c #000000",
"#	c #D63131",
"$	c #1D1414",
"%	c #D33030",
"&	c #CEF11A",
"................................",
"................................",
"................................",
"................................",
"................................",
"............++.++...............",
"...........+@+.+@+..............",
"..........+@@+@+@@+.............",
"..........+@@+@+@@+.............",
".........+@@@+@+@@+.............",
".......++@@@@@+@@@@++...........",
"...++++@@@@@@@@@@@@@@++++.......",
"....@@@@@@@@@@@@@@@@@@@@........",
".....@@@@@@@@@@@@@@@@@@.........",
"......@@@@@@#####@@@@@..........",
".....$$@@%##########@@@.........",
".........$$$$$$$$$$$.#..........",
".........$$$.$$$.$$$..#.........",
".........$$...$...$$............",
".......$.$$..$$$..$$.$..........",
"......$$..$$$$ $$$$..$$.........",
"........$...$$$$$...$...........",
"............$.&.&...............",
"............$...................",
"................................",
"...........$.&..$.$.............",
"...........$$$$$$$$.............",
"............$$$$$$..............",
"........$..........$............",
"......$$............$$..........",
".......$............$...........",
"................................"};
