/* XPM */
static char * ponte_xpm[] = {
"32 32 3 1",
" 	c #17120D",
".	c #7A4108",
"+	c #964B00",
"                                ",
".......  +++....  ++......  +++.",
"+......  +++....   ++.....  +++.",
"+++....  +++++..   ++++...  +++.",
"+++....  +++++...  ++++...  +++.",
"++++...  +++++...  ++++...  +++.",
"++++...  +++++...  ++++...  +++.",
"++++...  +++++...  ++++...  +++.",
"++++...  +++++...  ++++...  +++.",
"++++...  +++++...  ++++...  +++.",
"++++...  +++++...  ++++...  +++.",
"++++...  +++++...  ++++...  +++.",
"++++...  +++++..   ++++...  +++.",
"++++...  +++++..   ++++...  +++.",
"++++...  +++++..   ++++...  +++.",
"++++...  +++++..  +++++...  +++.",
"++++...  +++++..  +++++...  +++.",
"++++...  +++++..  +++++...  +++.",
"++++...  +++++..  +++++...  +++.",
"++++...  ++++...  +++++...  +++.",
"++++...  ++++...  +++++...  +++.",
"++++...  ++++..   +++++..   +++.",
"++++...  ++++..   +++++..   +++.",
"+++....  +++...  ++++++..   +++.",
"+++....  +++...  ++++++..   +++.",
"++....   +++..   +++++...   +++.",
"++....   ++...  +++......  ++++.",
"++...   +++... ++++.....   ++++.",
"++..    ++..   ++++..     ++++..",
".+..   ++..    ++....     ++....",
"....  ++..    ++....   ++++.....",
"                                "};
